<svg xmlns="http://www.w3.org/2000/svg" width="68" height="68" viewBox="0 0 68 68">
    <defs>
        <linearGradient id="s43x9y5dea" x1="18.084%" x2="90.23%" y1="16.282%" y2="91.077%">
            <stop offset="0%" stop-color="#4FEACD"/>
            <stop offset="100%" stop-color="#50A0EB"/>
        </linearGradient>
        <linearGradient id="555u99u17b" x1="5.433%" x2="84.286%" y1="14.119%" y2="90.171%">
            <stop offset="0%" stop-color="#22F7B9"/>
            <stop offset="100%" stop-color="#5C8BF3"/>
        </linearGradient>
    </defs>
    <g fill="none" fill-rule="evenodd">
        <g>
            <g>
                <g transform="translate(-748 -383) translate(195 289) translate(553 94)">
                    <circle cx="34" cy="34" r="34" fill="url(#s43x9y5dea)"/>
                    <circle cx="34" cy="34" r="34" fill="url(#555u99u17b)"/>
                    <g transform="translate(21.25 16)">
                        <path fill="#FFF" d="M12.993 0c4.09 0 7.407 3.316 7.407 7.407v1.735H17V7.436c0-2.213-1.794-4.007-4.007-4.007-2.146 0-3.898 1.687-4.002 3.807l-.005.2v12.03c-2.046-1.317-3.4-3.616-3.4-6.23V7.407C5.586 3.317 8.902 0 12.993 0z"/>
                        <rect width="26" height="20.429" y="12.143" fill="#FFF" rx="3"/>
                        <path fill="#52BDD8" d="M13.111 17.714c1.6 0 2.898 1.297 2.898 2.897 0 1.096-.608 2.05-1.505 2.542v2.274c0 .769-.623 1.393-1.393 1.393-.769 0-1.392-.624-1.392-1.393v-2.275c-.897-.492-1.505-1.446-1.505-2.54 0-1.6 1.297-2.898 2.897-2.898z"/>
                    </g>
                </g>
            </g>
        </g>
    </g>
</svg>
